<svg width="40" height="38" viewBox="0 0 40 38" fill="none" xmlns="http://www.w3.org/2000/svg">
<path d="M9.99998 1.71175C12.6701 1.71175 12.9864 1.7214 14.0408 1.76711C15.0158 1.80938 15.5453 1.96414 15.8977 2.0942C16.3644 2.26654 16.6976 2.47244 17.0475 2.80486C17.3974 3.13727 17.6142 3.45377 17.7955 3.89717C17.9325 4.23196 18.0954 4.73498 18.1399 5.66118C18.188 6.66296 18.1982 6.9634 18.1982 9.50002C18.1982 12.0366 18.188 12.3371 18.1399 13.3388C18.0954 14.2651 17.9325 14.7681 17.7955 15.1029C17.6142 15.5463 17.3974 15.8628 17.0475 16.1952C16.6976 16.5276 16.3644 16.7335 15.8977 16.9058C15.5453 17.0359 15.0158 17.1907 14.0408 17.2329C12.9865 17.2786 12.6703 17.2883 9.99998 17.2883C7.32969 17.2883 7.01344 17.2786 5.95914 17.2329C4.98415 17.1907 4.45466 17.0359 4.10229 16.9058C3.63551 16.7335 3.30235 16.5276 2.95244 16.1952C2.60253 15.8628 2.38579 15.5463 2.20443 15.1029C2.06748 14.7681 1.90457 14.2651 1.86007 13.3389C1.81196 12.3371 1.8018 12.0366 1.8018 9.50002C1.8018 6.9634 1.81196 6.66296 1.86007 5.66122C1.90457 4.73498 2.06748 4.23196 2.20443 3.89717C2.38579 3.45377 2.60253 3.13727 2.95244 2.80486C3.30235 2.47244 3.63551 2.26654 4.10229 2.0942C4.45466 1.96414 4.98415 1.80938 5.9591 1.76711C7.0136 1.7214 7.32985 1.71175 9.99998 1.71175ZM9.99998 0C7.28412 0 6.94362 0.010936 5.87701 0.0571688C4.81259 0.103326 4.08569 0.263897 3.44958 0.498757C2.79199 0.741536 2.23432 1.06637 1.67839 1.5945C1.12246 2.12264 0.780524 2.65243 0.524967 3.27714C0.277746 3.88145 0.108725 4.572 0.060138 5.5832C0.0114719 6.59644 0 6.91996 0 9.50002C0 12.0801 0.0114719 12.4036 0.060138 13.4168C0.108725 14.428 0.277746 15.1186 0.524967 15.7229C0.780524 16.3476 1.12246 16.8774 1.67839 17.4055C2.23432 17.9337 2.79199 18.2585 3.44958 18.5013C4.08569 18.7361 4.81259 18.8967 5.87701 18.9429C6.94362 18.9891 7.28412 19 9.99998 19C12.7158 19 13.0564 18.9891 14.1229 18.9429C15.1874 18.8967 15.9143 18.7361 16.5504 18.5013C17.208 18.2585 17.7656 17.9337 18.3216 17.4055C18.8775 16.8774 19.2194 16.3476 19.475 15.7229C19.7222 15.1186 19.8912 14.428 19.9398 13.4168C19.9885 12.4036 20 12.0801 20 9.50002C20 6.91996 19.9885 6.59644 19.9398 5.5832C19.8912 4.572 19.7222 3.88145 19.475 3.27714C19.2194 2.65243 18.8775 2.12264 18.3216 1.5945C17.7656 1.06637 17.208 0.741536 16.5504 0.498757C15.9143 0.263897 15.1874 0.103326 14.1229 0.0571688C13.0564 0.010936 12.7158 0 9.99998 0ZM9.99998 4.62162C7.16393 4.62162 4.86483 6.80577 4.86483 9.50002C4.86483 12.1943 7.16393 14.3784 9.99998 14.3784C12.836 14.3784 15.1351 12.1943 15.1351 9.50002C15.1351 6.80577 12.836 4.62162 9.99998 4.62162ZM9.99998 12.6667C8.15904 12.6667 6.66663 11.2489 6.66663 9.50002C6.66663 7.75113 8.15904 6.33333 9.99998 6.33333C11.8409 6.33333 13.3333 7.75113 13.3333 9.50002C13.3333 11.2489 11.8409 12.6667 9.99998 12.6667ZM16.538 4.42889C16.538 5.0585 16.0008 5.56891 15.338 5.56891C14.6753 5.56891 14.138 5.0585 14.138 4.42889C14.138 3.79928 14.6753 3.2889 15.338 3.2889C16.0008 3.2889 16.538 3.79928 16.538 4.42889Z" transform="scale(2)" fill="#0A0A08"/>
</svg>
